<svg width="138" height="44" viewBox="0 0 138 44" fill="none" xmlns="http://www.w3.org/2000/svg">
<path d="M2.24 34V10.96H9.456C9.66933 10.96 10.064 10.9653 10.64 10.976C11.2267 10.9867 11.7867 11.0293 12.32 11.104C14.1227 11.328 15.6373 11.9733 16.864 13.04C18.1013 14.1067 19.0347 15.4613 19.664 17.104C20.2933 18.736 20.608 20.528 20.608 22.48C20.608 24.4427 20.2933 26.2453 19.664 27.888C19.0347 29.52 18.1013 30.8693 16.864 31.936C15.6373 32.992 14.1227 33.632 12.32 33.856C11.7867 33.9307 11.2267 33.9733 10.64 33.984C10.064 33.9947 9.66933 34 9.456 34H2.24ZM5.664 30.816H9.456C9.81867 30.816 10.2507 30.8053 10.752 30.784C11.2533 30.7627 11.696 30.72 12.08 30.656C13.2533 30.432 14.2027 29.9253 14.928 29.136C15.664 28.336 16.2027 27.3547 16.544 26.192C16.8853 25.0293 17.056 23.792 17.056 22.48C17.056 21.1253 16.88 19.872 16.528 18.72C16.176 17.5573 15.632 16.5867 14.896 15.808C14.1707 15.0187 13.232 14.5173 12.08 14.304C11.696 14.2293 11.248 14.1867 10.736 14.176C10.2347 14.1547 9.808 14.144 9.456 14.144H5.664V30.816ZM31.9978 34.48C30.2804 34.48 28.7711 34.1067 27.4698 33.36C26.1791 32.6027 25.1711 31.552 24.4457 30.208C23.7311 28.8533 23.3738 27.2853 23.3738 25.504C23.3738 23.616 23.7258 21.9787 24.4298 20.592C25.1444 19.2053 26.1364 18.1333 27.4058 17.376C28.6751 16.6187 30.1524 16.24 31.8378 16.24C33.5978 16.24 35.0964 16.6507 36.3338 17.472C37.5711 18.2827 38.4938 19.44 39.1018 20.944C39.7204 22.448 39.9658 24.2347 39.8378 26.304H36.4938V25.088C36.4724 23.0827 36.0884 21.6 35.3418 20.64C34.6058 19.68 33.4804 19.2 31.9658 19.2C30.2911 19.2 29.0324 19.728 28.1898 20.784C27.3471 21.84 26.9258 23.3653 26.9258 25.36C26.9258 27.2587 27.3471 28.7307 28.1898 29.776C29.0324 30.8107 30.2484 31.328 31.8378 31.328C32.8831 31.328 33.7844 31.0933 34.5418 30.624C35.3098 30.144 35.9071 29.4613 36.3338 28.576L39.6138 29.616C38.9418 31.1627 37.9231 32.3627 36.5578 33.216C35.1924 34.0587 33.6724 34.48 31.9978 34.48ZM25.8378 26.304V23.696H38.1737V26.304H25.8378ZM50.0355 34.464C47.9342 34.464 46.2222 34 44.8995 33.072C43.5768 32.144 42.7662 30.8373 42.4675 29.152L45.8915 28.624C46.1048 29.52 46.5955 30.2293 47.3635 30.752C48.1422 31.264 49.1075 31.52 50.2595 31.52C51.3048 31.52 52.1208 31.3067 52.7075 30.88C53.3048 30.4533 53.6035 29.8667 53.6035 29.12C53.6035 28.6827 53.4968 28.3307 53.2835 28.064C53.0808 27.7867 52.6488 27.5253 51.9875 27.28C51.3262 27.0347 50.3182 26.7307 48.9635 26.368C47.4808 25.984 46.3022 25.5733 45.4275 25.136C44.5635 24.688 43.9448 24.1707 43.5715 23.584C43.2088 22.9867 43.0275 22.2667 43.0275 21.424C43.0275 20.3787 43.3048 19.4667 43.8595 18.688C44.4142 17.9093 45.1928 17.3067 46.1955 16.88C47.2088 16.4533 48.3928 16.24 49.7475 16.24C51.0702 16.24 52.2488 16.448 53.2835 16.864C54.3182 17.28 55.1555 17.872 55.7955 18.64C56.4355 19.3973 56.8195 20.288 56.9475 21.312L53.5235 21.936C53.4062 21.104 53.0168 20.448 52.3555 19.968C51.6942 19.488 50.8355 19.2267 49.7795 19.184C48.7662 19.1413 47.9448 19.312 47.3155 19.696C46.6862 20.0693 46.3715 20.5867 46.3715 21.248C46.3715 21.632 46.4888 21.9573 46.7235 22.224C46.9688 22.4907 47.4382 22.7467 48.1315 22.992C48.8248 23.2373 49.8488 23.5307 51.2035 23.872C52.6542 24.2453 53.8062 24.6613 54.6595 25.12C55.5128 25.568 56.1208 26.1067 56.4835 26.736C56.8568 27.3547 57.0435 28.1067 57.0435 28.992C57.0435 30.6987 56.4195 32.0373 55.1715 33.008C53.9342 33.9787 52.2222 34.464 50.0355 34.464ZM60.9038 13.888V10.64H64.2478V13.888H60.9038ZM60.9038 34V16.72H64.2478V34H60.9038ZM76.1725 42.16C75.2445 42.16 74.3432 42.016 73.4685 41.728C72.6045 41.44 71.8152 41.0133 71.1005 40.448C70.3858 39.8933 69.7938 39.2053 69.3245 38.384L72.4125 36.816C72.7858 37.552 73.3192 38.0907 74.0125 38.432C74.7058 38.7733 75.4365 38.944 76.2045 38.944C77.1538 38.944 77.9645 38.7733 78.6365 38.432C79.3085 38.1013 79.8152 37.6 80.1565 36.928C80.5085 36.256 80.6792 35.424 80.6685 34.432V29.6H81.0685V16.72H84.0285V34.464C84.0285 34.9227 84.0125 35.36 83.9805 35.776C83.9485 36.192 83.8898 36.608 83.8045 37.024C83.5592 38.1867 83.0898 39.1467 82.3965 39.904C81.7138 40.6613 80.8392 41.2267 79.7725 41.6C78.7165 41.9733 77.5165 42.16 76.1725 42.16ZM75.9165 34.48C74.3058 34.48 72.9138 34.08 71.7405 33.28C70.5778 32.48 69.6765 31.392 69.0365 30.016C68.4072 28.6293 68.0925 27.072 68.0925 25.344C68.0925 23.6053 68.4125 22.0533 69.0525 20.688C69.6925 19.312 70.5992 18.2293 71.7725 17.44C72.9565 16.64 74.3592 16.24 75.9805 16.24C77.6125 16.24 78.9832 16.64 80.0925 17.44C81.2125 18.2293 82.0552 19.312 82.6205 20.688C83.1965 22.064 83.4845 23.616 83.4845 25.344C83.4845 27.072 83.1965 28.624 82.6205 30C82.0445 31.376 81.1965 32.4693 80.0765 33.28C78.9565 34.08 77.5698 34.48 75.9165 34.48ZM76.3805 31.456C77.4792 31.456 78.3752 31.1947 79.0685 30.672C79.7618 30.1493 80.2685 29.4293 80.5885 28.512C80.9085 27.5947 81.0685 26.5387 81.0685 25.344C81.0685 24.1493 80.9032 23.0933 80.5725 22.176C80.2525 21.2587 79.7512 20.544 79.0685 20.032C78.3965 19.52 77.5378 19.264 76.4925 19.264C75.3832 19.264 74.4712 19.536 73.7565 20.08C73.0418 20.624 72.5085 21.3547 72.1565 22.272C71.8152 23.1893 71.6445 24.2133 71.6445 25.344C71.6445 26.4853 71.8152 27.52 72.1565 28.448C72.5085 29.3653 73.0312 30.096 73.7245 30.64C74.4285 31.184 75.3138 31.456 76.3805 31.456ZM100.649 34V25.504C100.649 24.832 100.591 24.144 100.473 23.44C100.367 22.7253 100.153 22.064 99.8333 21.456C99.5239 20.848 99.0813 20.3573 98.5053 19.984C97.9399 19.6107 97.1986 19.424 96.2812 19.424C95.6839 19.424 95.1186 19.5253 94.5853 19.728C94.0519 19.92 93.5826 20.2347 93.1773 20.672C92.7826 21.1093 92.4679 21.6853 92.2333 22.4C92.0093 23.1147 91.8973 23.984 91.8973 25.008L89.8173 24.224C89.8173 22.656 90.1106 21.2747 90.6973 20.08C91.2839 18.8747 92.1266 17.936 93.2253 17.264C94.3239 16.592 95.6519 16.256 97.2093 16.256C98.4039 16.256 99.4066 16.448 100.217 16.832C101.028 17.216 101.684 17.7227 102.185 18.352C102.697 18.9707 103.087 19.648 103.353 20.384C103.62 21.12 103.801 21.84 103.897 22.544C103.993 23.248 104.041 23.8667 104.041 24.4V34H100.649ZM88.5053 34V16.72H91.4973V21.712H91.8973V34H88.5053ZM108.529 34V10.96H111.873V34H108.529ZM134.742 34.464L128.31 28.064L130.454 25.92L136.854 32.32L134.742 34.464ZM126.294 34.48C123.99 34.48 122.027 33.9787 120.406 32.976C118.784 31.9627 117.542 30.5547 116.678 28.752C115.824 26.9493 115.398 24.8587 115.398 22.48C115.398 20.1013 115.824 18.0107 116.678 16.208C117.542 14.4053 118.784 13.0027 120.406 12C122.027 10.9867 123.99 10.48 126.294 10.48C128.587 10.48 130.544 10.9867 132.166 12C133.798 13.0027 135.04 14.4053 135.894 16.208C136.747 18.0107 137.174 20.1013 137.174 22.48C137.174 24.8587 136.747 26.9493 135.894 28.752C135.04 30.5547 133.798 31.9627 132.166 32.976C130.544 33.9787 128.587 34.48 126.294 34.48ZM126.294 31.296C127.926 31.3173 129.28 30.96 130.358 30.224C131.446 29.4773 132.262 28.4427 132.806 27.12C133.35 25.7867 133.622 24.24 133.622 22.48C133.622 20.72 133.35 19.184 132.806 17.872C132.262 16.5493 131.446 15.52 130.358 14.784C129.28 14.048 127.926 13.6747 126.294 13.664C124.662 13.6427 123.302 14 122.214 14.736C121.136 15.472 120.326 16.5067 119.782 17.84C119.238 19.1733 118.96 20.72 118.95 22.48C118.939 24.24 119.206 25.7813 119.75 27.104C120.294 28.416 121.11 29.44 122.198 30.176C123.296 30.912 124.662 31.2853 126.294 31.296Z" fill="#FEFEFE"/>
<circle cx="11" cy="22" r="4" fill="#1AA37A"/>
<circle cx="125" cy="22" r="4" fill="#1AA37A"/>
<circle cx="110" cy="4" r="4" fill="#1AA37A"/>
</svg>
