<svg width="20" height="20" viewBox="0 0 20 20" fill="none" xmlns="http://www.w3.org/2000/svg">
<path d="M10 20C8.61667 20 7.31667 19.7373 6.1 19.212C4.88334 18.6867 3.825 17.9743 2.925 17.075C2.025 16.1757 1.31267 15.1173 0.788001 13.9C0.263335 12.6827 0.000667933 11.3827 1.26582e-06 10C-0.000665401 8.61733 0.262001 7.31733 0.788001 6.1C1.314 4.88267 2.02633 3.82433 2.925 2.925C3.82367 2.02567 4.882 1.31333 6.1 0.788C7.318 0.262667 8.618 0 10 0C10.2833 0 10.521 0.0960001 10.713 0.288C10.905 0.48 11.0007 0.717333 11 1V8.275C11.3 8.45833 11.5417 8.696 11.725 8.988C11.9083 9.28 12 9.61733 12 10C12 10.55 11.8043 11.021 11.413 11.413C11.0217 11.805 10.5507 12.0007 10 12C9.44933 11.9993 8.97867 11.8037 8.588 11.413C8.19733 11.0223 8.00133 10.5513 8 10C8 9.61667 8.09167 9.275 8.275 8.975C8.45833 8.675 8.7 8.44167 9 8.275V6.125C8.13333 6.35833 7.41667 6.82933 6.85 7.538C6.28334 8.24667 6 9.06733 6 10C6 11.1 6.39167 12.0417 7.175 12.825C7.95833 13.6083 8.9 14 10 14C11.1 14 12.0417 13.6083 12.825 12.825C13.6083 12.0417 14 11.1 14 10C14 9.56667 13.9377 9.16667 13.813 8.8C13.6883 8.43333 13.5173 8.08333 13.3 7.75C13.1333 7.51667 13.0583 7.25833 13.075 6.975C13.0917 6.69167 13.1917 6.45833 13.375 6.275C13.575 6.075 13.8127 5.975 14.088 5.975C14.3633 5.975 14.584 6.09167 14.75 6.325C15.1333 6.84167 15.4377 7.40833 15.663 8.025C15.8883 8.64167 16.0007 9.3 16 10C16 11.6667 15.4167 13.0833 14.25 14.25C13.0833 15.4167 11.6667 16 10 16C8.33333 16 6.91667 15.4167 5.75 14.25C4.58333 13.0833 4 11.6667 4 10C4 8.5 4.475 7.196 5.425 6.088C6.375 4.98 7.56667 4.309 9 4.075V2.05C7.01667 2.3 5.354 3.175 4.012 4.675C2.67 6.175 1.99933 7.95 2 10C2 12.2333 2.775 14.125 4.325 15.675C5.875 17.225 7.76667 18 10 18C12.2333 18 14.125 17.225 15.675 15.675C17.225 14.125 18 12.2333 18 10C18 9.03333 17.8417 8.12067 17.525 7.262C17.2083 6.40333 16.7583 5.62433 16.175 4.925C15.9917 4.70833 15.9 4.45833 15.9 4.175C15.9 3.89167 16 3.65 16.2 3.45C16.4 3.25 16.6377 3.15433 16.913 3.163C17.1883 3.17167 17.4173 3.284 17.6 3.5C18.35 4.38333 18.9377 5.375 19.363 6.475C19.7883 7.575 20.0007 8.75 20 10C20 11.3833 19.7373 12.6833 19.212 13.9C18.6867 15.1167 17.9743 16.175 17.075 17.075C16.1757 17.975 15.1173 18.6877 13.9 19.213C12.6827 19.7383 11.3827 20.0007 10 20Z" fill="#1AA37A"/>
</svg>
