<svg width="20" height="20" viewBox="0 0 20 20" fill="none" xmlns="http://www.w3.org/2000/svg">
<path d="M18.75 4.75C18.75 6.96 14.72 8.75 9.75 8.75C4.78 8.75 0.75 6.96 0.75 4.75M18.75 4.75C18.75 2.54 14.72 0.75 9.75 0.75C4.78 0.75 0.75 2.54 0.75 4.75M18.75 4.75V9.75M0.75 4.75V9.75M18.75 9.75C18.75 11.96 14.72 13.75 9.75 13.75C4.78 13.75 0.75 11.96 0.75 9.75M18.75 9.75V14.75C18.75 16.96 14.72 18.75 9.75 18.75C4.78 18.75 0.75 16.96 0.75 14.75V9.75" stroke="#516C94" stroke-width="1.5" stroke-linecap="round" stroke-linejoin="round"/>
</svg>
