<svg width="20" height="20" viewBox="0 0 20 20" fill="none" xmlns="http://www.w3.org/2000/svg">
<path d="M12 1.2C12 0.88174 12.1264 0.576515 12.3515 0.351472C12.5765 0.126428 12.8817 0 13.2 0H18C18.3183 0 18.6235 0.126428 18.8485 0.351472C19.0736 0.576515 19.2 0.88174 19.2 1.2V15.6C19.2 16.5548 18.8207 17.4705 18.1456 18.1456C17.4705 18.8207 16.5548 19.2 15.6 19.2H1.2C0.88174 19.2 0.576515 19.0736 0.351472 18.8485C0.126428 18.6235 0 18.3183 0 18V13.2C0 12.8817 0.126428 12.5765 0.351472 12.3515C0.576515 12.1264 0.88174 12 1.2 12H6V7.2C6 6.88174 6.12643 6.57652 6.35147 6.35147C6.57652 6.12643 6.88174 6 7.2 6H12V1.2ZM18 1.2H13.2V6C13.2 6.31826 13.0736 6.62348 12.8485 6.84853C12.6235 7.07357 12.3183 7.2 12 7.2H7.2V12C7.2 12.3183 7.07357 12.6235 6.84853 12.8485C6.62348 13.0736 6.31826 13.2 6 13.2H1.2V18H15.6C16.2365 18 16.847 17.7471 17.2971 17.2971C17.7471 16.847 18 16.2365 18 15.6V1.2Z" fill="#516C94"/>
</svg>
